<?xml version="1.0" standalone="no"?>
<!DOCTYPE svg PUBLIC "-//W3C//DTD SVG 20010904//EN"
 "http://www.w3.org/TR/2001/REC-SVG-20010904/DTD/svg10.dtd">
<svg version="1.0" xmlns="http://www.w3.org/2000/svg"
 width="375.000000pt" height="375.000000pt" viewBox="0 0 375.000000 375.000000"
 preserveAspectRatio="xMidYMid meet">
<metadata>
Created by potrace 1.11, written by Peter Selinger 2001-2013
</metadata>
<g transform="translate(0.000000,375.000000) scale(0.100000,-0.100000)"
fill="#000000" stroke="none">
<path d="M448 3743 c10 -4 9 -9 -5 -20 -17 -14 -17 -14 2 -8 16 5 17 4 8 -6
-10 -10 -10 -16 0 -28 11 -14 10 -15 -7 -1 -11 8 -21 14 -23 12 -2 -1 -20 5
-40 13 -20 8 -38 13 -40 11 -4 -4 22 -20 87 -53 14 -7 37 -21 52 -30 14 -10
53 -33 85 -52 134 -78 418 -276 456 -319 11 -11 16 -26 12 -31 -9 -16 -5 -15
81 25 150 69 250 102 404 134 146 30 168 32 380 33 249 1 321 -8 590 -78 145
-38 373 -139 458 -203 46 -35 68 -36 37 -2 -18 20 -18 22 41 81 32 34 114 106
182 161 117 96 152 130 95 93 -41 -27 -254 -208 -293 -250 -19 -20 -42 -41
-51 -45 -11 -6 -64 15 -183 74 -166 82 -166 83 -145 102 11 10 27 32 34 49 7
16 26 42 42 57 43 41 97 95 109 110 51 59 95 87 174 112 47 14 101 35 120 46
l35 19 -190 0 c-104 0 -198 -4 -208 -7 -10 -4 -65 -52 -123 -107 -182 -173
-200 -172 -190 2 l7 113 -235 0 c-268 0 -237 13 -262 -105 -7 -33 -21 -89 -31
-125 -17 -60 -20 -65 -53 -71 -60 -12 -180 -16 -186 -7 -3 5 -11 4 -19 -2 -10
-9 -90 -28 -277 -67 -30 -6 -33 0 -29 66 2 18 -1 31 -6 28 -4 -3 -8 5 -8 18 0
13 3 21 8 18 4 -2 7 43 7 100 0 87 -3 106 -16 111 -13 5 -14 9 -4 21 10 12
-47 14 -442 14 -249 0 -447 -3 -440 -6z"/>
<path d="M3504 3739 c-4 -6 -8 -26 -9 -43 -5 -78 -23 -112 -80 -150 -30 -20
-55 -39 -55 -41 0 -8 37 13 89 50 25 18 65 43 87 56 160 92 214 125 214 132 0
12 -238 8 -246 -4z"/>
<path d="M1810 3676 c0 -2 -7 -21 -15 -42 l-16 -39 21 24 c18 21 28 61 15 61
-3 0 -5 -2 -5 -4z"/>
<path d="M3271 3574 c0 -11 3 -14 6 -6 3 7 2 16 -1 19 -3 4 -6 -2 -5 -13z"/>
<path d="M0 3105 c0 -3 28 -19 62 -36 104 -52 138 -77 139 -102 1 -17 2 -18 6
-4 6 23 10 22 106 -14 98 -38 107 -44 101 -72 -6 -35 -6 -68 1 -124 6 -48 5
-53 -12 -53 -11 0 -24 -5 -30 -11 -16 -16 -22 0 -24 74 -1 41 -6 65 -13 64
-19 -4 -25 -20 -13 -41 13 -25 15 -60 6 -101 -4 -16 -10 -43 -13 -58 -6 -26
-9 -28 -39 -21 -18 4 -38 7 -44 7 -14 0 -16 16 -14 87 0 25 -3 61 -8 80 -9 34
-9 33 -11 -20 -1 -30 -3 -98 -5 -150 -2 -52 -6 -187 -10 -300 -3 -113 -8 -214
-10 -225 -3 -11 -7 -45 -9 -75 -2 -31 -9 -83 -15 -115 -5 -33 -13 -107 -16
-165 -3 -57 -9 -108 -13 -112 -4 -4 -33 6 -65 22 l-59 29 6 -572 c3 -315 8
-594 12 -621 4 -34 3 -47 -5 -42 -8 5 -11 -54 -11 -213 l0 -221 44 0 44 0 1
82 c2 102 17 208 35 253 12 27 14 81 11 267 -3 205 -2 235 13 251 9 10 17 37
17 63 2 49 11 66 25 45 5 -8 15 -11 25 -7 16 6 17 17 11 103 -3 53 -8 106 -11
117 -2 12 -6 72 -10 134 -3 63 -15 175 -26 249 -23 152 -22 281 5 463 8 58 20
181 26 274 6 93 13 172 15 175 3 2 5 0 5 -6 0 -6 9 -9 20 -6 26 7 35 -18 39
-110 1 -10 5 -15 11 -12 6 3 10 2 10 -2 0 -11 56 -44 63 -37 3 3 8 -10 12 -28
4 -18 10 -37 14 -43 4 -5 8 -23 9 -40 2 -16 12 -41 23 -55 29 -38 39 -67 42
-126 2 -29 5 -56 8 -59 9 -8 -8 -101 -33 -179 -28 -92 -29 -222 -1 -316 11
-36 19 -80 18 -98 -1 -18 3 -36 8 -39 6 -3 7 -1 3 5 -4 7 -1 12 8 12 16 0 46
-40 111 -149 33 -55 36 -67 26 -83 -10 -16 -10 -19 1 -12 10 6 10 4 -1 -9 -7
-9 -17 -14 -22 -11 -5 3 -9 1 -9 -4 0 -6 -9 -8 -20 -5 -11 3 -20 1 -20 -5 0
-6 -9 -14 -20 -17 -15 -5 -19 -13 -16 -31 3 -15 1 -22 -5 -18 -6 3 -9 0 -8 -7
1 -8 -5 -39 -14 -69 -12 -40 -16 -81 -13 -145 3 -74 -1 -105 -21 -175 -63
-213 -112 -403 -122 -471 -7 -41 -14 -84 -17 -97 -3 -14 0 -22 9 -22 9 0 17
25 25 77 37 240 264 968 311 997 3 3 27 -14 51 -36 191 -173 283 -243 356
-274 27 -11 34 -12 34 -1 0 7 -18 20 -39 29 -111 48 -395 306 -454 412 -15 27
-27 50 -27 51 0 1 17 -3 38 -11 128 -46 261 22 347 177 27 49 30 63 30 144 0
76 -5 99 -27 146 -32 69 -88 133 -142 162 -33 17 -58 22 -126 22 -76 0 -93 -4
-148 -31 -47 -23 -61 -27 -57 -15 27 88 50 243 60 421 23 380 73 548 206 695
29 30 50 58 47 60 -2 3 -29 -20 -58 -50 -30 -30 -60 -55 -68 -55 -7 0 -10 -4
-7 -10 3 -5 1 -18 -4 -27 -6 -10 -11 -13 -11 -6 0 7 -9 10 -22 8 -64 -13 -390
92 -496 159 -32 20 -128 66 -138 66 -2 0 -4 -2 -4 -5z m190 -1961 c0 -8 -4
-12 -10 -9 -5 3 -10 13 -10 21 0 8 5 12 10 9 6 -3 10 -13 10 -21z m-88 -639
c5 -101 -4 -165 -24 -165 -10 0 -5 119 7 205 2 11 4 31 4 44 2 54 9 10 13 -84z"/>
<path d="M3649 2874 c-95 -47 -229 -96 -229 -84 0 14 -72 8 -77 -7 -5 -12 -7
-12 -14 -1 -7 11 -10 10 -21 -1 -11 -12 -10 -13 2 -6 9 5 12 4 7 -1 -5 -5 -21
-9 -37 -10 -28 -1 -42 14 -36 39 1 6 1 9 -1 5 -3 -4 -16 5 -30 20 -27 30 -27
29 9 -63 41 -103 56 -211 63 -445 7 -239 18 -361 39 -450 8 -30 17 -71 20 -91
l6 -37 -41 21 c-64 31 -170 34 -244 6 -121 -45 -217 -187 -223 -330 -4 -66 0
-84 22 -132 28 -59 91 -129 139 -153 16 -9 60 -23 98 -33 l70 -18 -28 -34
c-59 -74 -237 -205 -366 -271 -34 -17 -56 -33 -49 -36 22 -7 72 18 189 95 62
40 118 76 126 78 13 5 26 -20 54 -105 32 -99 113 -490 143 -694 11 -71 22
-131 25 -134 27 -27 5 135 -66 479 -23 114 -38 218 -39 270 -2 50 -8 93 -16
106 -7 11 -14 51 -15 87 -2 76 2 83 97 188 44 49 80 103 109 163 74 151 91
253 60 365 -69 254 -83 353 -91 651 -3 124 -11 242 -20 281 -19 88 -18 97 9
108 229 93 457 199 457 212 0 11 3 12 -101 -38z m-511 -2070 c-3 -14 -5 -12
-10 9 -3 19 -2 25 4 19 6 -6 8 -18 6 -28z"/>
<path d="M638 2903 c7 -3 16 -2 19 1 4 3 -2 6 -13 5 -11 0 -14 -3 -6 -6z"/>
<path d="M3274 2802 c-8 -5 -7 -11 4 -22 14 -13 15 -12 9 2 -3 9 -1 19 6 22 7
2 8 5 2 5 -5 0 -15 -3 -21 -7z"/>
<path d="M3740 2576 c0 -8 -6 -16 -14 -19 -15 -6 -14 -53 2 -98 14 -37 -35
-199 -59 -199 -5 0 -1 -16 7 -35 17 -42 18 -92 3 -205 -12 -82 -22 -112 -39
-107 -4 1 -9 -2 -11 -8 -2 -5 -11 -19 -21 -30 -11 -11 -17 -28 -14 -37 4 -10
9 -27 12 -38 4 -14 2 -20 -8 -20 -26 0 -45 -60 -40 -127 3 -42 -1 -77 -12
-110 -20 -58 -34 -199 -19 -190 6 4 18 -2 28 -13 13 -15 16 -31 12 -77 -5 -65
-26 -130 -43 -137 -13 -5 -13 11 -1 31 4 6 3 14 -3 18 -5 3 -10 28 -10 55 0
44 -13 71 -27 57 -3 -3 -9 -41 -14 -84 -5 -47 -16 -87 -27 -103 -10 -14 -26
-47 -36 -74 -23 -61 -45 -246 -33 -277 9 -26 1 -93 -16 -124 -11 -21 -20 -322
-9 -311 4 4 10 40 14 79 18 183 28 269 33 278 4 5 13 6 21 1 8 -5 29 -6 46 -4
30 5 30 5 23 51 -4 25 -7 59 -6 74 1 17 -3 26 -9 22 -6 -3 -8 -10 -5 -15 3 -5
2 -11 -2 -13 -5 -3 -8 18 -8 46 0 41 4 52 17 55 12 2 16 -1 12 -11 -3 -8 -1
-18 4 -21 5 -3 9 2 8 12 -1 12 8 18 26 20 43 5 46 -18 20 -199 -8 -57 -6 -83
7 -75 9 6 9 2 14 -73 2 -37 -1 -55 -10 -58 -7 -3 -10 -10 -6 -16 3 -6 1 -7 -6
-3 -6 4 -9 11 -7 15 3 4 -2 17 -10 29 -11 17 -18 19 -27 10 -17 -15 -17 -37
-1 -138 13 -88 23 -178 31 -290 2 -36 5 -71 5 -77 1 -10 30 -13 110 -13 l108
0 0 521 c0 485 -1 520 -17 508 -15 -13 -15 -12 -4 10 7 13 8 21 3 17 -6 -3
-13 3 -17 14 -4 11 -10 18 -14 15 -5 -2 -15 3 -24 13 -17 18 -17 54 0 87 9 18
9 31 4 97 0 10 -15 33 -31 52 -27 30 -30 40 -26 83 4 43 22 99 47 143 5 8 17
34 28 58 11 23 27 42 35 42 14 0 16 51 16 465 0 256 -2 465 -5 465 -3 0 -5 -6
-5 -14z m-70 -976 c-5 -17 -22 -54 -39 -83 -16 -28 -30 -55 -30 -59 -1 -5 -1
-24 -1 -43 0 -19 -4 -35 -9 -35 -10 0 -3 87 10 115 10 24 31 77 34 88 2 4 4 9
5 12 1 3 4 10 5 15 1 6 3 12 4 15 0 3 7 5 15 5 11 0 13 -7 6 -30z m-132 -639
c-2 -20 -8 -26 -28 -26 -19 0 -24 4 -22 20 9 49 56 55 50 6z"/>
<path d="M995 2526 c-93 -43 -157 -142 -158 -245 0 -69 26 -125 83 -173 131
-113 312 -53 398 131 35 77 28 139 -28 220 -49 73 -85 91 -179 91 -48 0 -80
-7 -116 -24z m218 -8 c48 -25 61 -82 32 -138 -19 -37 -43 -50 -95 -50 -54 0
-90 34 -90 86 0 29 8 44 39 75 41 41 74 49 114 27z"/>
<path d="M2685 2464 c-57 -20 -102 -75 -126 -156 -36 -118 -1 -220 100 -290
87 -61 157 -70 249 -32 102 42 150 219 93 337 -25 52 -97 122 -146 143 -43 18
-118 17 -170 -2z m49 -24 c32 -12 66 -65 66 -103 0 -18 -11 -39 -30 -59 -28
-27 -36 -30 -77 -25 -60 6 -86 33 -86 87 0 43 28 84 68 100 27 12 30 12 59 0z"/>
<path d="M1859 2089 c-8 -4 -3 -13 14 -24 27 -17 74 -12 80 10 3 12 -78 24
-94 14z"/>
<path d="M1844 1651 c-75 -57 -89 -70 -81 -77 4 -4 20 4 35 18 87 80 115 83
183 18 46 -43 62 -47 32 -6 -22 30 -91 76 -114 76 -9 0 -34 -13 -55 -29z"/>
<path d="M2238 605 c-3 -3 -141 -5 -306 -6 -210 0 -303 -3 -308 -11 -4 -7 -3
-8 4 -4 7 4 12 3 12 -2 0 -5 56 -38 125 -73 120 -61 129 -64 198 -64 65 0 78
3 137 38 139 82 169 102 167 111 -4 12 -21 18 -29 11z"/>
<path d="M1220 577 c0 -8 25 -55 56 -103 70 -112 181 -333 223 -446 7 -20 18
-28 33 -28 14 0 18 3 11 8 -6 4 -20 30 -31 57 -42 105 -118 255 -194 382 -80
133 -98 157 -98 130z"/>
<path d="M2317 393 c-55 -79 -197 -309 -197 -320 0 -3 -11 -21 -26 -40 l-25
-33 31 0 c17 0 29 4 26 8 -11 18 97 205 212 369 28 41 52 78 52 84 0 24 -23 2
-73 -68z"/>
<path d="M837 36 c4 -12 3 -17 -4 -13 -6 4 -16 1 -22 -6 -8 -11 -4 -14 22 -14
21 0 34 5 34 14 0 7 -3 11 -5 8 -3 -3 -11 3 -19 13 -12 16 -13 16 -6 -2z"/>
<path d="M782 20 c0 -14 2 -19 5 -12 2 6 2 18 0 25 -3 6 -5 1 -5 -13z"/>
<path d="M408 3 c7 -3 16 -2 19 1 4 3 -2 6 -13 5 -11 0 -14 -3 -6 -6z"/>
<path d="M948 3 c7 -3 16 -2 19 1 4 3 -2 6 -13 5 -11 0 -14 -3 -6 -6z"/>
<path d="M1438 3 c6 -2 18 -2 25 0 6 3 1 5 -13 5 -14 0 -19 -2 -12 -5z"/>
<path d="M1738 3 c7 -3 16 -2 19 1 4 3 -2 6 -13 5 -11 0 -14 -3 -6 -6z"/>
<path d="M1853 3 c9 -2 23 -2 30 0 6 3 -1 5 -18 5 -16 0 -22 -2 -12 -5z"/>
<path d="M2218 3 c6 -2 18 -2 25 0 6 3 1 5 -13 5 -14 0 -19 -2 -12 -5z"/>
<path d="M2433 3 c9 -2 25 -2 35 0 9 3 1 5 -18 5 -19 0 -27 -2 -17 -5z"/>
<path d="M2718 3 c45 -2 119 -2 165 0 45 1 8 3 -83 3 -91 0 -128 -2 -82 -3z"/>
<path d="M2998 3 c12 -2 32 -2 45 0 12 2 2 4 -23 4 -25 0 -35 -2 -22 -4z"/>
</g>
</svg>
