<?xml version="1.0" standalone="no"?>
<!DOCTYPE svg PUBLIC "-//W3C//DTD SVG 20010904//EN"
 "http://www.w3.org/TR/2001/REC-SVG-20010904/DTD/svg10.dtd">
<svg version="1.0" xmlns="http://www.w3.org/2000/svg"
 width="258.000000pt" height="258.000000pt" viewBox="0 0 258.000000 258.000000"
 preserveAspectRatio="xMidYMid meet">
<metadata>
Created by potrace 1.11, written by Peter Selinger 2001-2013
</metadata>
<g transform="translate(0.000000,258.000000) scale(0.100000,-0.100000)"
fill="#000000" stroke="none">
<path d="M341 1984 c-61 -16 -105 -41 -140 -78 -14 -14 -31 -26 -38 -26 -8 0
-12 -4 -9 -9 8 -12 -17 -58 -40 -77 -11 -9 -14 -13 -8 -10 6 3 11 -2 11 -10 0
-8 -6 -13 -12 -10 -6 2 -17 -6 -24 -17 -11 -18 -11 -20 0 -9 18 17 34 15 19
-3 -10 -12 -10 -15 1 -16 8 0 4 -4 -9 -9 -20 -9 -21 -12 -11 -32 12 -23 12
-23 -9 -5 -15 14 -22 15 -28 6 -4 -7 -3 -10 4 -5 6 3 14 1 18 -5 3 -6 0 -15
-7 -20 -8 -5 -9 -9 -3 -9 6 0 10 -11 9 -25 -2 -14 1 -23 7 -19 5 3 7 12 4 20
-3 8 -2 14 3 14 5 0 11 -9 14 -20 3 -11 0 -18 -6 -17 -6 1 -13 -8 -15 -19 -2
-16 -9 -21 -25 -18 -20 4 -20 3 -3 -4 19 -8 32 -42 16 -42 -5 0 -8 -9 -7 -20
1 -11 5 -20 10 -20 4 0 7 7 5 16 -2 10 5 18 15 20 11 1 16 0 13 -3 -3 -4 -1
-12 5 -20 8 -8 8 -13 1 -13 -6 0 -12 6 -14 12 -3 7 -7 2 -11 -11 -4 -17 -2
-21 8 -17 10 3 12 0 8 -11 -4 -11 -2 -14 5 -9 8 5 10 2 5 -9 -3 -9 -9 -13 -12
-8 -3 4 -15 15 -26 23 -13 9 -16 10 -8 1 6 -7 9 -21 6 -30 -4 -14 -3 -14 6 -1
10 14 16 7 12 -13 -1 -5 3 -6 9 -2 5 3 19 8 31 10 16 3 18 1 10 -9 -6 -7 -7
-17 -3 -22 4 -4 0 -3 -10 4 -12 10 -18 10 -24 1 -4 -8 -3 -9 4 -5 7 4 12 1 12
-9 0 -10 5 -15 14 -12 7 3 20 -3 29 -14 19 -21 15 -24 -13 -9 -13 7 -21 5 -31
-8 -12 -15 -12 -16 2 -4 13 10 19 10 28 -2 7 -8 21 -13 31 -11 11 2 19 -1 17
-8 -1 -7 5 -11 14 -11 11 1 15 -5 12 -17 -3 -11 -10 -19 -15 -19 -5 0 -7 4 -4
9 3 5 -1 14 -9 21 -10 9 -15 9 -15 1 0 -6 5 -11 11 -11 5 0 7 -5 4 -10 -3 -6
1 -13 10 -16 9 -4 14 -13 11 -21 -3 -8 -1 -11 4 -8 6 3 10 1 10 -6 0 -6 8 -3
18 8 9 10 16 17 14 14 -1 -2 6 -14 15 -25 18 -21 18 -21 -3 -3 -17 14 -21 15
-21 2 0 -8 3 -13 5 -10 3 3 11 0 19 -6 11 -10 11 -15 1 -28 -12 -14 -11 -14 5
-2 13 11 17 11 17 1 0 -8 3 -10 6 -7 4 4 2 12 -4 20 -7 8 -8 18 -1 27 9 13 9
13 7 0 -2 -8 -1 -15 2 -16 23 -4 48 -27 44 -39 -4 -8 -1 -15 5 -15 6 0 11 -5
11 -11 0 -6 -5 -7 -12 -2 -19 11 -39 13 -32 2 3 -5 9 -7 14 -4 5 3 13 -3 19
-12 6 -11 11 -13 11 -5 0 9 3 10 13 2 6 -6 21 -17 32 -25 16 -12 16 -14 3 -9
-10 3 -18 2 -18 -4 0 -6 8 -9 18 -7 9 1 16 10 16 19 -1 8 2 13 8 10 5 -3 6
-15 2 -26 -4 -14 -2 -18 5 -14 6 4 11 2 11 -3 0 -6 5 -10 12 -8 7 1 12 -3 13
-10 0 -6 3 -15 7 -19 4 -4 3 -13 -3 -20 -7 -8 -7 -14 1 -19 6 -4 9 -1 8 6 -2
7 5 15 15 17 9 2 17 -2 17 -8 0 -6 -5 -8 -12 -4 -7 4 -8 3 -4 -5 4 -6 12 -9
17 -6 5 4 9 1 9 -6 0 -7 3 -9 7 -6 3 4 12 2 20 -4 10 -9 13 -8 13 1 0 8 3 10
6 7 4 -4 2 -12 -3 -19 -15 -19 -12 -48 5 -48 11 0 12 3 3 14 -8 10 -9 16 -1
21 5 3 11 4 11 1 4 -17 7 -26 9 -28 7 -10 6 -37 -1 -32 -5 3 -6 11 -3 17 4 7
3 8 -1 4 -16 -14 -13 -33 6 -34 11 -1 19 3 19 9 0 6 2 9 5 6 12 -11 -7 -37
-23 -30 -14 5 -15 4 -2 -10 11 -12 19 -13 30 -5 12 9 13 9 2 -3 -18 -21 -15
-34 6 -19 9 7 14 9 10 5 -4 -5 -2 -16 5 -25 11 -14 10 -15 -7 -1 -18 14 -19
14 -12 -5 17 -42 13 -60 -14 -57 -24 2 -24 2 -5 -12 20 -15 19 -16 -9 -41 -16
-14 -30 -25 -30 -25 -1 0 -24 -3 -52 -6 -126 -14 -206 78 -229 265 -3 25 -7
47 -10 49 -2 3 -44 -6 -92 -19 l-88 -24 0 -45 c0 -46 -7 -62 -22 -46 -4 5 -3
7 2 3 6 -3 12 4 12 16 2 19 1 20 -8 5 -6 -10 -17 -15 -27 -12 -16 5 -16 5 0
-6 10 -6 15 -17 11 -27 -5 -13 -2 -15 11 -10 11 4 15 3 10 -4 -3 -6 -14 -9
-24 -6 -15 4 -17 0 -14 -17 15 -65 24 -84 42 -91 15 -5 14 -9 -8 -26 l-25 -19
28 10 c15 5 27 8 28 7 0 -1 2 -13 5 -27 3 -21 2 -22 -7 -7 -5 9 -15 17 -20 17
-6 0 -3 -7 5 -16 19 -19 20 -26 3 -43 -10 -11 -9 -13 1 -7 7 4 15 0 18 -9 5
-12 9 -13 14 -4 13 20 43 3 32 -18 -7 -14 -1 -26 29 -54 22 -20 39 -33 39 -30
0 3 5 -1 10 -9 6 -9 10 -10 10 -3 0 7 -6 16 -14 20 -8 4 -15 13 -16 18 -1 6
-6 9 -11 8 -5 -2 -9 2 -9 7 0 6 4 10 8 10 11 0 51 -47 55 -63 3 -18 31 -37 38
-25 4 5 21 1 43 -12 21 -11 35 -16 31 -10 -11 17 -63 40 -78 34 -17 -6 -31 22
-15 32 6 4 8 3 4 -4 -3 -6 -2 -13 4 -17 5 -3 10 -1 10 6 0 7 9 6 25 -5 14 -9
31 -14 37 -10 7 5 8 3 3 -6 -6 -10 -4 -12 9 -7 9 4 15 3 12 -1 -2 -4 6 -12 18
-18 17 -8 23 -7 23 2 0 7 -5 12 -11 11 -5 -1 -11 7 -13 18 -2 15 -1 16 5 5 4
-8 15 -16 26 -18 10 -2 15 1 12 7 -4 5 -2 13 4 16 6 4 9 1 8 -7 -2 -7 3 -12
10 -11 6 2 12 -2 12 -7 0 -6 -7 -10 -16 -8 -10 2 -19 -4 -21 -12 -4 -13 -3
-13 6 0 8 12 11 12 11 1 0 -10 3 -11 14 -2 11 9 15 9 18 -1 3 -8 7 -6 11 6 4
10 3 15 -3 11 -6 -3 -10 -1 -10 5 0 7 8 9 21 5 14 -5 19 -3 15 3 -4 6 2 8 14
5 16 -4 19 -2 14 13 -3 11 -2 15 3 9 4 -6 14 -10 21 -9 6 1 17 2 23 3 5 0 7 6
4 11 -4 6 -3 10 2 9 21 -4 34 2 27 13 -5 7 -3 8 7 3 32 -21 87 -7 72 18 -4 6
0 8 10 4 12 -5 15 0 12 23 -3 18 2 33 12 42 12 9 15 9 9 1 -5 -9 -2 -11 8 -7
9 3 13 10 10 15 -7 12 31 61 40 51 4 -3 4 1 0 11 -3 10 -1 17 5 17 6 0 10 3 9
8 -1 4 4 25 10 47 43 155 -1 335 -114 463 -26 30 -119 117 -208 195 -176 155
-178 156 -205 207 -37 70 -28 215 12 182 16 -14 28 -6 20 14 -3 8 -10 11 -16
7 -6 -3 -7 -1 -3 6 6 8 12 9 20 2 7 -6 16 -8 20 -4 3 4 15 7 25 8 13 1 17 -3
13 -14 -5 -13 -3 -14 10 -3 20 16 48 5 42 -16 -5 -16 -5 -16 5 0 13 19 43 18
49 -3 3 -11 1 -11 -8 1 -8 10 -10 11 -8 2 2 -8 6 -12 9 -10 12 7 38 -24 32
-40 -4 -14 -3 -14 5 -3 7 10 7 21 0 35 l-11 21 21 -20 c11 -11 16 -24 12 -28
-9 -10 -1 -57 10 -57 11 0 7 33 -5 43 -5 4 0 6 12 4 12 -2 26 -7 30 -12 5 -4
3 -5 -4 -1 -17 9 -28 -14 -12 -25 8 -5 9 -9 3 -9 -6 0 -11 -7 -11 -15 0 -13 9
-19 27 -17 3 0 7 -9 7 -20 2 -20 1 -20 -12 -2 -12 17 -13 16 -8 -10 5 -22 3
-27 -7 -21 -9 5 -11 4 -6 -4 6 -9 11 -9 21 -1 11 9 20 8 37 -5 13 -10 16 -15
7 -12 -9 3 -23 0 -30 -6 -11 -10 -11 -9 0 6 9 11 10 17 2 17 -6 0 -11 -4 -11
-10 0 -5 -8 -10 -17 -11 -16 0 -16 -1 -2 -7 9 -4 15 -15 13 -26 -2 -13 1 -15
8 -8 6 6 16 8 23 6 7 -3 16 -1 20 5 3 6 0 9 -8 5 -8 -3 -18 -1 -22 5 -11 19
37 5 52 -15 14 -18 15 -18 8 4 -5 19 -2 25 14 29 12 3 21 9 21 14 0 5 6 8 13
7 6 -2 11 3 9 10 -1 8 2 11 7 8 5 -4 16 2 23 12 7 11 24 22 36 27 22 6 23 11
17 53 -17 127 -72 230 -150 284 -79 54 -230 73 -344 42z m165 -207 c3 -2 -7
-4 -21 -4 -14 0 -27 3 -30 7 -5 8 43 5 51 -3z m-412 -222 c-4 -8 -11 -15 -16
-15 -6 0 -5 6 2 15 7 8 14 15 16 15 2 0 1 -7 -2 -15z m136 -320 c0 -8 -2 -15
-4 -15 -2 0 -6 7 -10 15 -3 8 -1 15 4 15 6 0 10 -7 10 -15z m148 -110 c-3 -3
-9 2 -12 12 -6 14 -5 15 5 6 7 -7 10 -15 7 -18z m36 -27 c-3 -4 -11 -5 -19 -1
-21 7 -19 12 4 10 11 0 18 -5 15 -9z m83 -90 c-3 -8 -6 -5 -6 6 -1 11 2 17 5
13 3 -3 4 -12 1 -19z m50 -23 c0 -8 -4 -12 -9 -9 -5 3 -6 10 -3 15 9 13 12 11
12 -6z m-462 -233 c-3 -3 3 -14 12 -25 18 -19 17 -19 -4 -6 -27 16 -36 36 -17
36 8 0 12 -3 9 -5z m37 -72 c6 0 9 -3 6 -6 -10 -9 -45 14 -52 33 -6 14 -2 13
14 -4 11 -13 26 -23 32 -23z m20 -122 c-6 -6 -12 -6 -17 3 -5 8 -4 10 3 5 7
-4 12 0 13 11 0 12 2 13 6 5 3 -8 1 -18 -5 -24z m62 -52 c-3 -9 -12 -12 -22
-9 -15 6 -9 11 25 22 1 1 0 -5 -3 -13z m512 -21 c3 -20 -14 -29 -30 -16 -7 6
-16 9 -19 6 -4 -3 -4 -2 -1 3 5 7 9 8 35 11 5 0 7 7 3 14 -4 6 -3 8 1 4 5 -4
10 -14 11 -22z"/>
<path d="M1379 1963 c-5 -13 -7 -29 -4 -33 6 -10 -29 -32 -38 -24 -3 3 -4 -2
-3 -13 2 -11 10 -17 22 -15 18 3 18 3 -1 -11 -15 -11 -22 -12 -28 -4 -6 8 -7
7 -4 -3 2 -8 12 -14 21 -14 16 2 16 0 1 -23 -16 -24 -16 -25 6 -18 19 6 20 5
8 -8 -8 -8 -18 -14 -24 -12 -5 1 -7 0 -2 -2 4 -3 7 -9 7 -14 0 -6 -4 -8 -9 -5
-4 3 -7 -8 -5 -25 2 -18 0 -28 -6 -24 -16 10 -12 -1 6 -15 12 -11 15 -11 12 0
-2 8 6 15 17 17 15 2 16 1 5 -5 -8 -4 -16 -15 -18 -26 -2 -13 1 -16 10 -10 10
6 10 4 -1 -9 -7 -9 -10 -17 -7 -17 4 0 0 -7 -8 -16 -21 -20 -11 -37 17 -28 20
6 20 6 4 -10 -18 -18 -14 -41 5 -30 7 4 8 2 4 -5 -4 -6 -12 -9 -17 -6 -5 4 -9
2 -9 -4 0 -5 3 -11 8 -14 4 -2 1 -2 -5 -1 -7 2 -13 -1 -13 -7 0 -6 -5 -7 -12
-3 -7 4 -8 3 -4 -4 4 -6 14 -8 24 -5 15 6 15 5 4 -10 -12 -14 -11 -16 7 -12
12 2 19 0 16 -6 -4 -5 -10 -7 -15 -4 -5 3 -7 -7 -5 -22 2 -18 8 -27 16 -25 8
2 10 0 6 -4 -12 -12 -38 -14 -31 -2 4 7 2 8 -4 4 -6 -4 -9 -13 -6 -21 4 -8 9
-13 14 -10 4 2 12 -8 19 -23 11 -25 10 -26 -4 -8 -10 13 -15 15 -15 6 0 -10
-4 -9 -13 4 -12 16 -13 16 -13 -3 0 -11 5 -17 10 -14 5 4 7 -1 2 -12 -5 -15
-4 -16 9 -5 18 15 20 0 3 -19 -11 -11 -9 -12 10 -6 23 7 23 6 5 -14 -18 -22
-29 -28 -18 -11 3 6 1 10 -5 10 -7 0 -10 -6 -7 -12 2 -7 14 -12 26 -10 20 2
21 1 7 -14 -17 -17 -12 -39 6 -28 7 4 8 2 4 -5 -4 -6 -12 -9 -17 -6 -5 4 -9 2
-9 -4 0 -5 5 -11 12 -13 7 -3 5 -7 -6 -11 -10 -4 -15 -3 -11 3 4 6 -1 7 -11 3
-15 -5 -15 -7 0 -15 9 -5 13 -14 10 -20 -4 -6 -3 -8 3 -5 6 4 17 -1 24 -11 11
-14 11 -15 -1 -5 -9 8 -19 9 -32 2 -20 -11 -25 -29 -7 -29 5 0 7 5 4 10 -3 6
1 10 10 10 10 0 15 -7 13 -17 -2 -12 2 -17 12 -15 8 2 11 0 7 -4 -12 -12 -38
-14 -31 -2 4 7 2 8 -4 4 -6 -4 -9 -13 -6 -21 4 -8 9 -13 14 -10 4 2 12 -8 19
-23 11 -25 10 -26 -4 -8 -10 13 -15 15 -15 6 0 -10 -4 -9 -13 4 -12 16 -13 16
-13 -3 0 -11 5 -17 10 -14 5 4 7 -1 2 -12 -5 -15 -4 -16 9 -5 18 15 20 0 3
-19 -11 -11 -9 -12 11 -6 21 6 22 5 10 -8 -8 -8 -18 -14 -24 -12 -5 1 -7 0 -2
-2 4 -3 7 -9 7 -14 0 -6 -4 -8 -9 -5 -4 3 -7 -8 -5 -25 2 -18 0 -28 -6 -24
-16 10 -12 -1 6 -15 12 -11 15 -11 12 0 -2 8 6 15 17 17 15 2 16 1 5 -5 -8 -4
-16 -15 -18 -26 -2 -13 1 -16 10 -10 10 6 10 4 -1 -9 -7 -9 -10 -17 -7 -17 4
0 0 -7 -8 -16 -21 -20 -11 -37 17 -28 20 6 20 6 4 -10 -18 -18 -14 -41 5 -30
7 4 8 2 4 -5 -4 -6 -12 -9 -17 -6 -5 4 -9 2 -9 -4 0 -5 3 -11 8 -14 4 -2 1 -2
-5 -1 -7 2 -13 -1 -13 -7 0 -6 -5 -7 -12 -3 -7 4 -8 3 -4 -4 4 -6 14 -8 24 -5
15 6 15 5 4 -10 -12 -14 -11 -16 7 -12 12 2 19 0 16 -6 -4 -5 -10 -7 -15 -4
-5 3 -7 -7 -5 -22 2 -18 8 -27 16 -25 8 2 10 0 6 -4 -12 -12 -38 -14 -31 -2 4
7 2 8 -4 4 -6 -4 -9 -13 -6 -21 4 -8 9 -13 14 -10 4 2 12 -8 19 -23 11 -25 10
-26 -4 -8 -10 13 -15 15 -15 6 0 -10 -4 -9 -13 4 -12 16 -13 16 -13 -3 0 -11
5 -17 10 -14 5 4 7 -1 2 -12 -5 -15 -4 -16 9 -5 18 15 20 0 3 -19 -11 -11 -9
-12 11 -6 21 6 22 5 10 -8 -8 -8 -18 -14 -24 -12 -5 1 -7 0 -2 -2 4 -3 7 -9 7
-14 0 -6 -4 -7 -10 -4 -7 4 -7 -3 0 -19 6 -17 6 -26 -1 -26 -5 0 -4 -6 3 -14
16 -17 32 2 17 20 -11 13 -2 44 13 44 6 0 6 -6 -1 -14 -9 -11 -9 -19 0 -34 10
-17 10 -24 -2 -39 -13 -16 -13 -17 4 -4 11 9 17 10 17 2 0 -6 7 -11 15 -11 8
0 15 4 15 10 0 5 -5 9 -11 7 -6 -1 -14 5 -16 13 -3 9 -1 11 4 5 7 -9 27 -12
36 -5 9 7 36 6 31 -1 -3 -5 -9 -7 -14 -4 -5 3 -12 0 -16 -6 -4 -7 -3 -9 3 -6
6 4 16 0 23 -8 7 -8 17 -15 23 -15 6 0 2 7 -9 15 -17 13 -17 14 -2 15 9 0 19
-4 23 -9 3 -6 15 -8 27 -6 23 5 38 15 21 15 -6 0 -10 8 -9 18 2 9 -4 23 -13
30 -13 10 -11 10 11 1 15 -7 25 -16 21 -22 -3 -6 -1 -7 6 -3 6 4 9 11 6 16 -3
4 -2 10 2 13 5 2 3 2 -4 1 -7 -2 -15 1 -18 6 -4 6 7 10 24 10 l31 0 1 310 c1
171 2 316 3 323 0 6 10 12 21 12 11 0 26 6 33 15 11 13 11 12 3 -7 -8 -15 -18
-21 -32 -18 -16 3 -18 1 -10 -9 6 -7 7 -17 3 -22 -4 -5 3 -1 15 10 12 10 26
15 32 12 5 -4 14 2 20 11 8 15 10 15 11 3 0 -9 -6 -22 -12 -29 -10 -11 -10
-13 0 -7 7 4 12 2 12 -6 0 -9 3 -9 10 2 5 8 10 11 10 5 0 -5 5 -3 10 5 6 9 10
10 10 3 0 -6 -4 -15 -10 -18 -5 -3 -10 -12 -10 -18 0 -7 4 -6 10 3 6 10 10 11
10 3 0 -7 9 -22 20 -33 11 -11 15 -20 9 -20 -7 0 -18 8 -25 18 -12 15 -12 15
-7 -7 5 -19 3 -22 -8 -16 -8 5 -10 4 -6 0 7 -9 28 -15 55 -17 9 -1 9 -5 2 -12
-6 -6 -4 -16 8 -29 17 -20 17 -20 -10 -3 -23 15 -26 15 -24 2 1 -9 5 -19 9
-22 4 -4 2 -13 -4 -20 -7 -9 -6 -12 5 -10 9 1 19 6 23 11 4 4 3 5 -3 2 -6 -3
-11 0 -11 7 0 11 4 12 17 4 16 -10 16 -13 2 -29 -9 -10 -19 -16 -22 -14 -4 2
-7 -3 -7 -11 0 -10 4 -11 11 -4 5 5 16 10 24 10 9 0 6 -7 -9 -21 -13 -11 -18
-17 -11 -14 9 5 15 -1 19 -14 3 -11 9 -18 14 -15 5 3 9 4 9 2 1 -2 3 -20 6
-40 3 -20 0 -46 -6 -57 -8 -16 -8 -21 2 -19 6 2 13 -3 14 -9 1 -7 2 -18 3 -24
0 -5 6 -7 12 -3 6 3 3 -5 -6 -20 -16 -23 -16 -26 -1 -20 9 3 13 11 10 18 -3 6
1 3 10 -8 11 -14 13 -24 5 -38 -7 -13 -7 -23 0 -32 7 -9 7 -16 0 -23 -7 -7 -8
-13 0 -17 5 -4 9 -12 7 -19 -1 -7 -1 -9 1 -4 3 4 8 5 12 3 4 -3 8 1 8 9 0 8
-4 12 -8 10 -4 -3 -6 3 -4 12 1 10 -2 26 -6 35 -6 11 -5 19 3 24 7 4 8 3 4 -4
-4 -7 -3 -12 3 -12 5 0 8 -9 6 -20 -2 -11 0 -20 6 -20 10 0 7 -35 -4 -46 -3
-4 0 -19 8 -34 8 -15 11 -31 7 -35 -4 -5 -1 -5 6 -1 7 4 10 12 7 17 -4 5 -1 9
4 9 14 0 14 -23 1 -36 -6 -6 -2 -10 12 -11 14 -1 18 1 11 5 -8 5 -9 13 -3 22
8 12 10 12 10 1 0 -7 6 -11 15 -7 8 3 19 -3 25 -12 9 -15 10 -14 5 5 -3 12 -1
24 4 28 7 4 8 -1 4 -12 -6 -16 -5 -17 12 -3 11 9 16 10 11 3 -4 -8 -1 -13 9
-13 10 0 14 -5 9 -13 -6 -9 -4 -9 7 1 7 6 22 13 33 13 17 1 18 2 4 6 -10 2
-18 9 -18 14 0 6 10 8 23 4 15 -4 18 -3 8 3 -11 8 -11 10 0 14 9 3 8 6 -5 11
-10 4 -15 3 -11 -3 3 -6 2 -10 -3 -10 -6 0 -12 6 -15 13 -3 8 8 13 36 14 22 2
42 5 45 7 2 3 -37 150 -88 328 -50 178 -93 334 -93 348 -1 14 -6 29 -12 33 -6
5 -1 7 12 4 17 -4 20 -1 15 12 -3 9 -10 20 -16 24 -7 5 -3 7 9 5 12 -2 19 2
17 10 -1 8 2 11 8 7 5 -3 10 -1 10 4 0 6 9 11 20 11 11 0 20 5 20 11 0 5 -6 7
-12 3 -9 -5 -9 -3 1 9 7 9 18 14 25 10 6 -3 8 -3 4 1 -3 4 5 31 18 60 46 100
52 276 14 398 -33 108 -116 178 -249 210 -25 6 -140 12 -254 13 l-208 3 -10
-25z m1 -62 c0 -5 -10 -11 -22 -14 -22 -6 -22 -6 -4 8 23 17 26 18 26 6z m244
-123 c-5 -7 -2 -9 9 -5 12 4 14 2 10 -11 -3 -9 -3 -14 2 -10 4 4 15 2 24 -5
14 -10 14 -10 3 5 -12 15 -11 17 7 15 11 0 17 -5 15 -9 -5 -7 9 -10 33 -7 4 0
10 -7 13 -17 6 -16 7 -16 12 3 4 16 1 20 -16 19 -12 -1 -21 5 -22 14 0 8 1 10
3 3 2 -6 14 -10 26 -7 15 2 27 -4 36 -19 13 -20 13 -21 -3 -8 -14 12 -16 12
-10 -3 7 -18 20 -21 29 -6 4 6 11 8 16 4 5 -3 7 -9 4 -14 -6 -9 23 -22 35 -15
11 7 7 -22 -5 -32 -4 -4 -5 -2 -1 4 5 9 2 11 -10 6 -13 -5 -15 -3 -9 7 6 9 4
11 -5 5 -10 -6 -10 -11 3 -20 9 -7 13 -16 10 -21 -4 -5 -1 -3 7 4 21 18 35 15
19 -5 -12 -14 -12 -16 1 -11 11 4 16 -1 18 -15 1 -17 -1 -19 -8 -7 -6 9 -10
10 -10 3 0 -6 7 -19 16 -28 9 -8 17 -29 18 -46 2 -29 1 -30 -12 -13 -13 18
-14 17 -7 -6 7 -23 7 -24 -10 -10 -17 14 -17 14 -4 -7 8 -13 17 -23 22 -23 4
0 6 4 3 8 -3 5 1 9 9 9 25 0 17 -14 -16 -28 l-32 -13 22 -17 c22 -18 19 -26
-9 -24 -8 0 -14 7 -12 14 1 7 -2 10 -8 6 -8 -5 -8 -11 1 -21 6 -7 15 -11 20
-8 23 14 6 -17 -18 -34 -40 -29 -98 -42 -181 -42 l-73 0 2 220 c1 123 5 217
10 214 5 -3 9 0 9 5 0 6 5 11 11 11 5 0 7 -5 3 -12z m-266 -28 c-7 -11 -16
-20 -20 -20 -5 0 -3 9 4 20 7 11 16 20 20 20 5 0 3 -9 -4 -20z m447 10 c3 -5
1 -10 -4 -10 -6 0 -11 5 -11 10 0 6 2 10 4 10 3 0 8 -4 11 -10z m36 -27 c13
-16 12 -17 -3 -4 -17 13 -22 21 -14 21 2 0 10 -8 17 -17z m-471 -98 c0 -2 -10
-9 -22 -15 -22 -11 -22 -10 -4 4 21 17 26 19 26 11z m540 -35 c0 -5 -2 -10 -4
-10 -3 0 -8 5 -11 10 -3 6 -1 10 4 10 6 0 11 -4 11 -10z m-16 -142 c-3 -4 -9
-8 -15 -8 -5 0 -9 4 -9 8 0 5 7 9 15 9 8 0 12 -4 9 -9z m-193 -361 c-10 -9
-11 -8 -5 6 3 10 9 15 12 12 3 -3 0 -11 -7 -18z m-343 -147 c-7 -11 -16 -20
-20 -20 -5 0 -3 9 4 20 7 11 16 20 20 20 5 0 3 -9 -4 -20z m452 -122 c0 -6 -6
-5 -15 2 -8 7 -15 14 -15 16 0 2 7 1 15 -2 8 -4 15 -11 15 -16z m-440 7 c0 -2
-10 -9 -22 -15 -22 -11 -22 -10 -4 4 21 17 26 19 26 11z m480 -116 c0 -5 -5
-7 -12 -3 -8 5 -9 1 -4 -12 5 -14 4 -16 -5 -7 -6 6 -8 16 -5 22 9 14 26 14 26
0z m7 -45 c-3 -3 -12 -4 -19 -1 -8 3 -5 6 6 6 11 1 17 -2 13 -5z m21 -49 c-3
-3 -9 2 -12 12 -6 14 -5 15 5 6 7 -7 10 -15 7 -18z m35 -162 c-3 -7 -6 -13 -8
-13 -2 0 -5 6 -8 13 -3 8 1 14 8 14 7 0 11 -6 8 -14z m-503 -27 c0 -6 -5 -3
-11 7 -6 9 -15 14 -21 11 -7 -4 -8 -2 -4 5 9 14 36 -3 36 -23z m560 4 c0 -5
-2 -10 -4 -10 -3 0 -8 5 -11 10 -3 6 -1 10 4 10 6 0 11 -4 11 -10z m-454 -24
c1 -7 -5 -13 -12 -13 -15 0 -19 19 -7 30 8 8 16 1 19 -17z m541 9 c0 -8 -4
-12 -9 -9 -5 3 -6 10 -3 15 9 13 12 11 12 -6z"/>
<path d="M1604 1758 c-4 -7 -4 -10 1 -6 4 4 14 0 22 -10 13 -15 13 -15 3 6
-12 25 -16 27 -26 10z"/>
<path d="M1866 1572 c-3 -5 1 -9 9 -9 8 0 12 4 9 9 -3 4 -7 8 -9 8 -2 0 -6 -4
-9 -8z"/>
<path d="M1317 1829 c7 -7 15 -10 18 -7 3 3 -2 9 -12 12 -14 6 -15 5 -6 -5z"/>
<path d="M377 1756 c-4 -10 -1 -13 8 -9 8 3 12 9 9 14 -7 12 -11 11 -17 -5z"/>
<path d="M435 1749 c-4 -6 -5 -12 -2 -15 2 -3 7 2 10 11 7 17 1 20 -8 4z"/>
<path d="M317 1733 c-10 -9 -9 -23 1 -23 5 0 9 7 9 15 0 17 -1 18 -10 8z"/>
<path d="M515 1700 c3 -5 8 -10 11 -10 2 0 4 5 4 10 0 6 -5 10 -11 10 -5 0 -7
-4 -4 -10z"/>
<path d="M1319 1677 c6 -8 7 -18 3 -22 -4 -5 -1 -5 6 -1 10 6 10 11 1 22 -6 8
-14 14 -16 14 -3 0 0 -6 6 -13z"/>
<path d="M35 1600 c3 -5 8 -10 11 -10 2 0 4 5 4 10 0 6 -5 10 -11 10 -5 0 -7
-4 -4 -10z"/>
<path d="M580 1591 c0 -6 4 -13 10 -16 6 -3 7 1 4 9 -7 18 -14 21 -14 7z"/>
<path d="M1317 1589 c7 -7 15 -10 18 -7 3 3 -2 9 -12 12 -14 6 -15 5 -6 -5z"/>
<path d="M767 1550 c-14 -11 -36 -24 -49 -30 l-23 -10 25 2 c14 1 30 -1 37 -5
7 -4 10 -1 8 10 -4 25 6 38 16 22 7 -11 9 -10 9 4 0 11 4 15 12 11 7 -4 8 -3
4 4 -9 15 -9 15 -39 -8z"/>
<path d="M1320 1560 c-9 -6 -10 -10 -3 -10 6 0 15 5 18 10 8 12 4 12 -15 0z"/>
<path d="M1315 1469 c-10 -15 3 -25 16 -12 7 7 7 13 1 17 -6 3 -14 1 -17 -5z"/>
<path d="M150 1290 c-9 -6 -10 -10 -3 -10 6 0 15 5 18 10 8 12 4 12 -15 0z"/>
<path d="M1317 1269 c7 -7 15 -10 18 -7 3 3 -2 9 -12 12 -14 6 -15 5 -6 -5z"/>
<path d="M2005 1240 c-10 -11 -15 -23 -12 -26 4 -4 9 1 13 10 3 9 9 14 13 11
4 -2 8 2 8 10 0 19 0 19 -22 -5z"/>
<path d="M1320 1240 c-9 -6 -10 -10 -3 -10 6 0 15 5 18 10 8 12 4 12 -15 0z"/>
<path d="M310 1155 c0 -16 16 -20 24 -6 3 5 -1 11 -9 15 -9 3 -15 0 -15 -9z"/>
<path d="M430 1020 c0 -4 7 -7 15 -6 23 3 26 12 5 13 -11 1 -20 -2 -20 -7z"/>
<path d="M506 938 c3 -4 16 -7 29 -6 30 3 23 11 -9 13 -14 0 -22 -3 -20 -7z"/>
<path d="M535 909 c-4 -6 -5 -12 -2 -15 2 -3 7 2 10 11 7 17 1 20 -8 4z"/>
<path d="M1319 877 c6 -8 7 -18 3 -22 -4 -5 -1 -5 6 -1 10 6 10 11 1 22 -6 8
-14 14 -16 14 -3 0 0 -6 6 -13z"/>
<path d="M596 785 c-3 -9 -2 -13 4 -10 10 6 14 -7 11 -31 -1 -7 5 -14 13 -17
18 -7 14 23 -7 53 -13 18 -15 19 -21 5z"/>
<path d="M1317 789 c7 -7 15 -10 18 -7 3 3 -2 9 -12 12 -14 6 -15 5 -6 -5z"/>
<path d="M1790 783 c0 -5 5 -15 10 -23 7 -12 9 -10 7 8 -1 19 -17 33 -17 15z"/>
<path d="M1320 760 c-9 -6 -10 -10 -3 -10 6 0 15 5 18 10 8 12 4 12 -15 0z"/>
<path d="M1008 699 c-5 -4 -11 -27 -11 -51 -2 -32 -6 -44 -14 -41 -7 3 -10 9
-7 14 9 15 -3 10 -17 -8 -8 -9 -9 -14 -3 -10 7 4 17 0 24 -8 7 -8 9 -15 5 -15
-4 0 -1 -8 6 -17 12 -16 12 -17 -2 -6 -9 7 -20 9 -25 5 -4 -4 -2 1 5 11 11 14
11 17 -2 17 -10 0 -15 -7 -12 -20 2 -11 0 -20 -6 -20 -5 0 -9 -5 -9 -10 0 -7
7 -7 21 1 13 6 19 7 15 1 -3 -6 -3 -12 1 -15 5 -2 3 -3 -3 -1 -6 1 -17 -2 -25
-8 -11 -8 -10 -9 4 -4 23 7 22 -6 -3 -27 -22 -19 -18 -42 6 -33 16 6 18 -5 4
-22 -6 -6 -7 -10 -3 -7 11 8 43 -27 36 -39 -4 -6 3 -3 14 7 12 10 23 15 25 10
3 -4 3 -1 1 7 -2 8 -1 11 3 7 4 -4 13 -2 21 4 7 6 13 8 13 3 0 -5 5 -2 11 6 9
13 10 13 6 0 -2 -8 -10 -14 -16 -12 -9 2 -9 -3 -1 -18 13 -24 22 -27 13 -3 -4
11 -3 14 5 9 7 -4 12 -2 12 3 0 6 7 11 16 11 8 0 13 4 10 8 -3 5 1 9 9 9 8 0
12 -4 10 -8 -3 -3 3 -13 13 -20 15 -13 16 -12 3 4 -11 14 -11 17 0 17 11 0 11
2 -1 10 -11 7 -11 10 -2 10 7 0 10 5 6 11 -4 8 -9 7 -15 -2 -4 -7 -11 -10 -15
-6 -10 10 -1 17 32 23 16 3 30 7 33 9 6 6 7 215 1 216 -22 5 -184 3 -192 -2z
m-38 -229 c-24 -15 -37 -11 -16 5 11 8 22 12 25 9 3 -3 -1 -9 -9 -14z m22 -27
c-6 -2 -10 -9 -7 -13 3 -5 12 -7 20 -3 8 3 15 1 15 -4 0 -20 -14 -23 -31 -7
-19 17 -17 35 4 33 9 0 8 -2 -1 -6z"/>
<path d="M2319 680 c-1 -14 -1 -28 -1 -31 1 -4 -12 -21 -28 -39 -26 -29 -31
-60 -10 -60 14 0 8 -59 -6 -71 -15 -12 -10 -29 9 -29 8 0 8 3 -2 9 -9 6 -10
11 -2 15 11 7 13 1 13 -46 1 -15 6 -26 12 -25 6 1 10 -4 8 -12 -2 -11 0 -12
11 -3 8 7 18 8 22 4 5 -4 5 -1 1 6 -4 7 -12 9 -18 6 -7 -4 -8 -2 -4 5 4 6 11
9 15 7 16 -10 61 -14 56 -5 -4 5 -11 6 -17 3 -7 -4 -8 -2 -4 5 6 9 11 9 23 -1
9 -7 17 -11 19 -8 1 3 6 1 11 -4 5 -5 3 -6 -4 -2 -7 4 -13 3 -13 -3 0 -5 9 -9
19 -8 16 1 18 4 9 15 -9 10 -9 15 1 21 7 5 12 11 12 15 -1 3 -1 14 -1 24 0 14
2 15 10 2 5 -8 6 -17 2 -20 -12 -9 -13 -40 -2 -40 6 0 8 5 5 10 -3 6 2 10 12
10 10 0 14 4 8 8 -16 11 -18 43 -3 41 37 -5 38 0 38 111 0 61 -3 110 -7 111
-5 1 -50 2 -100 3 -93 1 -93 1 -94 -24z m-9 -91 c0 -5 -5 -7 -12 -3 -7 5 -9 2
-5 -9 4 -11 2 -14 -9 -10 -11 4 -12 9 -3 19 14 17 29 18 29 3z m20 -146 c-1
-18 -18 -35 -24 -24 -4 6 -2 11 4 11 6 0 8 5 5 10 -3 6 -1 10 4 10 6 0 11 -3
11 -7z m95 -3 c-3 -5 -12 -10 -18 -10 -7 0 -6 4 3 10 19 12 23 12 15 0z"/>
<path d="M57 667 c-3 -8 1 -14 8 -14 7 0 11 6 8 14 -3 7 -6 13 -8 13 -2 0 -5
-6 -8 -13z"/>
<path d="M1315 669 c-10 -15 3 -25 16 -12 7 7 7 13 1 17 -6 3 -14 1 -17 -5z"/>
<path d="M2270 529 c0 -5 -6 -7 -12 -3 -10 6 -10 5 -1 -8 7 -8 11 -18 8 -21
-3 -4 -2 -5 2 -2 8 7 15 45 8 45 -3 0 -5 -5 -5 -11z"/>
<path d="M141 504 c0 -11 3 -14 6 -6 3 7 2 16 -1 19 -3 4 -6 -2 -5 -13z"/>
<path d="M632 434 c-13 -9 -29 -17 -35 -18 -28 -6 -66 -30 -60 -39 3 -5 8 -4
13 3 4 6 14 12 22 14 8 1 27 9 41 19 34 22 43 22 26 0 -11 -15 -11 -16 1 -6
11 10 24 43 16 43 -1 0 -12 -7 -24 -16z"/>
<path d="M670 440 c0 -5 5 -10 11 -10 5 0 7 5 4 10 -3 6 -8 10 -11 10 -2 0 -4
-4 -4 -10z"/>
<path d="M2260 431 c0 -6 4 -13 10 -16 6 -3 7 1 4 9 -7 18 -14 21 -14 7z"/>
<path d="M1110 401 c0 -6 4 -13 10 -16 6 -3 7 1 4 9 -7 18 -14 21 -14 7z"/>
<path d="M2010 400 c0 -5 5 -10 11 -10 5 0 7 5 4 10 -3 6 -8 10 -11 10 -2 0
-4 -4 -4 -10z"/>
<path d="M316 373 c-6 -14 -5 -15 5 -6 7 7 10 15 7 18 -3 3 -9 -2 -12 -12z"/>
<path d="M2360 380 c-8 -5 -10 -10 -5 -10 6 0 17 5 25 10 8 5 11 10 5 10 -5 0
-17 -5 -25 -10z"/>
</g>
</svg>
